<?xml version="1.0" encoding="UTF-8"?>
<svg id="Layer_2" data-name="Layer 2" xmlns="http://www.w3.org/2000/svg" viewBox="0 0 85.7 85.54">
  <defs>
    <style>
      .cls-1 {
        fill: #96000f;
      }

      .cls-2 {
        fill: #e7000b;
      }

      .cls-3 {
        fill: #00c950;
      }

      .cls-4 {
        fill: #048231;
      }

      .cls-5 {
        fill: #ffd230;
      }

      .cls-6 {
        fill: #d3a100;
      }
    </style>
  </defs>
  <g id="Layer_1-2" data-name="Layer 1">
    <g>
      <g>
        <rect class="cls-5" x="4.74" y="31.68" width="76.22" height="22.17"/>
        <path class="cls-6" d="M85.68,26.93c.02.28.02.57.02.85v-.85h-.02ZM0,57.75v.86h.02c-.02-.29-.02-.57-.02-.86Z"/>
        <rect class="cls-6" x="80.96" y="31.68" width="4.74" height="22.17"/>
        <rect class="cls-6" y="31.68" width="4.74" height="22.17"/>
      </g>
      <g>
        <path class="cls-3" d="M80.96,58.61v22.17H27.71c-12.38,0-22.5-9.87-22.95-22.17h76.2Z"/>
        <path class="cls-4" d="M0,53.85v3.9c0,.29,0,.57.02.86.45,14.92,12.7,26.93,27.69,26.93h55.25c1.51,0,2.74-1.24,2.74-2.75v-28.94H0ZM80.96,80.78H27.71c-12.38,0-22.5-9.87-22.95-22.17h76.2v22.17Z"/>
      </g>
      <g>
        <path class="cls-2" d="M80.94,26.93H4.74V4.76h53.25c12.38,0,22.5,9.86,22.95,22.17Z"/>
        <path class="cls-1" d="M85.68,26.93c-.44-14.93-12.69-26.93-27.69-26.93H2.71C1.21,0,0,1.22,0,2.72v28.96h85.7v-3.9c0-.28,0-.57-.02-.85ZM4.74,26.93V4.76h53.25c12.38,0,22.5,9.86,22.95,22.17H4.74Z"/>
      </g>
    </g>
  </g>
</svg>